<?xml version="1.0" encoding="UTF-8" standalone="no"?><svg viewBox="0 0 40 21" xmlns="http://www.w3.org/2000/svg" xmlns:xlink="http://www.w3.org/1999/xlink">    <defs>        <polygon id="path-1" points="32 6 37 6 39 10 32 10"></polygon>        <mask id="mask-2" maskContentUnits="userSpaceOnUse" maskUnits="objectBoundingBox" x="0" y="0" width="7" height="4" fill="white">            <use xlink:href="#path-1"></use>        </mask>        <circle id="path-3" cx="14.5" cy="17.5" r="3.5"></circle>        <mask id="mask-4" maskContentUnits="userSpaceOnUse" maskUnits="objectBoundingBox" x="0" y="0" width="7" height="7" fill="white">            <use xlink:href="#path-3"></use>        </mask>        <circle id="path-5" cx="33.5" cy="17.5" r="3.5"></circle>        <mask id="mask-6" maskContentUnits="userSpaceOnUse" maskUnits="objectBoundingBox" x="0" y="0" width="7" height="7" fill="white">            <use xlink:href="#path-5"></use>        </mask>    </defs>    <g id="Symbols" stroke="none" stroke-width="1" fill="none" fill-rule="evenodd">        <g id="M05_delivery_info" transform="translate(-36.000000, -31.000000)">            <g id="icon_fastdelivery_normal" transform="translate(34.000000, 19.000000)">                <rect id="Dev-Guide" x="0" y="0" width="44" height="44"></rect>                <rect id="Visual-Guide" x="12" y="12" width="20" height="20"></rect>                <g id="Shape" transform="translate(2.000000, 12.000000)">                    <path d="M12,18 C12.1947494,19.7341297 16.8052506,19.7341297 17,18 L28.3150358,18.1274463 L29.2887828,18.1274463 L30.1651551,18.1274463 C30.3599045,19.7341289 31.7718377,21 33.4272076,21 C35.0825776,21 36.4945107,19.7341289 36.6892601,18.1274463 L40,18.1274463 L40,8.99999998 C40,8.99999998 36.6666667,4.65680189 35,1.99999998 L30.1651554,1.99999998 L29.1651554,-2.38433131e-08 L7,-2.38433131e-08 L8,18 L12,18 Z M14.2593079,19.2883055 C13.2268447,19.2883055 12.353222,18.4543929 12.353222,17.3822196 C12.353222,16.3100462 13.1871345,15.4761337 14.2593079,15.4761337 C15.3314812,15.4761337 16.1653938,16.3100462 16.1653938,17.3822196 C16.1653938,18.4543929 15.2917711,19.2883055 14.2593079,19.2883055 L14.2593079,19.2883055 Z M33.4272076,19.8207637 C32.2726432,19.8207637 31.2957041,18.8882309 31.2957041,17.6892601 C31.2957041,16.4902894 32.2282369,15.5577566 33.4272076,15.5577566 C34.6261784,15.5577566 35.5587112,16.4902894 35.5587112,17.6892601 C35.5587112,18.8882309 34.5817721,19.8207637 33.4272076,19.8207637 L33.4272076,19.8207637 Z M38,10 L38,13.1954023 L38,16 L35,16 C34.8,14.5287356 34.32,15 33,15 C31.7103092,15 31.2187806,14.6045949 31,16 C30.9948584,16.0327936 30.7645923,15.9662175 30.76,16 L30,16 L30,4 L33.8,4 L38,10 Z M28,2 L28,3.75 L28,16 L17,16 C16.7692308,14.6 16.5230769,15 15,15 C13.4769231,15 12.2307692,14.6 12,16 L10,16 L9,2 L28,2 Z" fill="#2D2D2D"></path>                    <rect id="Rectangle-1564" fill="#2D2D2D" x="0" y="5" width="15" height="2"></rect>                    <rect id="Rectangle-1564" fill="#2D2D2D" x="6" y="9" width="8" height="2"></rect>                    <rect id="Rectangle-1564" fill="#2D2D2D" x="3" y="9" width="2" height="2"></rect>                    <rect id="Rectangle-1564" fill="#2D2D2D" x="5" y="13" width="7" height="2"></rect>                    <use id="Rectangle-581" stroke="#2D2D2D" mask="url(#mask-2)" stroke-width="2" xlink:href="#path-1"></use>                    <use id="Oval-71" stroke="#2D2D2D" mask="url(#mask-4)" stroke-width="4" xlink:href="#path-3"></use>                    <use id="Oval-71" stroke="#2D2D2D" mask="url(#mask-6)" stroke-width="4" xlink:href="#path-5"></use>                </g>            </g>        </g>    </g></svg>